<svg width="512" height="512" viewBox="0 0 512 512" fill="none" xmlns="http://www.w3.org/2000/svg">
<rect width="512" height="512" fill="#2B6777"/>
<path d="M217.116 212.512C214.227 212.464 211.339 212.181 208.456 212.006H192.205C189.617 212.211 187.035 212.421 184.447 212.614C173.175 213.457 163.882 218.055 156.804 227.004C147.656 238.56 146.193 251.825 148.36 265.74C151.176 283.85 167.403 298.247 185.284 298.704C194.805 298.945 204.327 298.939 213.854 298.915C227.896 298.873 239.686 294.16 248.082 282.328C255.756 271.506 257.038 259.487 255.365 246.746C252.867 227.679 236.34 212.813 217.128 212.506L217.116 212.512ZM215.305 281.328C210.797 281.383 206.289 281.334 201.781 281.334L201.769 281.641C195.486 281.322 189.07 281.684 182.937 280.534C170.725 278.247 162.07 265.602 163.466 253.234C164.995 239.704 175.425 229.978 188.486 229.942C197.393 229.917 206.307 229.905 215.215 229.942C228.931 230.002 239.963 241.389 240.089 255.563C240.216 269.478 229.003 281.154 215.311 281.322L215.305 281.328Z" fill="white"/>
<path d="M387.113 233.131C391.669 229.592 397.031 228.539 402.653 228.527C417.579 228.503 432.505 228.527 447.431 228.509C448.623 228.509 449.808 228.341 451 228.256V212.006H399.842C398.867 212.193 397.892 212.415 396.905 212.566C384.573 214.432 375.268 220.661 369.653 231.898C364.519 242.165 363.484 253.234 364.531 264.428C366.445 284.873 379.138 297.633 399.637 298.632C416.532 299.457 433.498 298.843 450.434 298.861C450.621 298.861 450.814 298.74 451 298.674V282.424C433.757 282.43 416.513 282.671 399.276 282.358C389.165 282.171 382.466 276.303 380.877 267.407C380.703 266.438 380.685 265.445 380.552 264.037H384.26C405.217 264.037 426.173 264.037 447.124 264.025C448.418 264.025 449.706 263.856 451 263.772V246.92C432.27 246.962 413.54 247.004 394.81 247.04C390.212 247.052 385.614 247.04 380.679 247.04C380.679 241.232 382.659 236.598 387.113 233.143V233.131Z" fill="white"/>
<path d="M352.83 246.956C351.067 229.875 340.185 217.772 323.52 213.727C320.324 212.951 317.032 212.566 313.787 212H306.565C305.686 212.169 304.814 212.415 303.923 212.506C281.443 214.775 267.414 229.653 266.915 252.283C266.584 267.112 266.794 281.96 266.782 296.796C266.782 297.452 266.981 298.114 267.077 298.74H283.081C283.081 297.272 283.068 295.99 283.081 294.708C283.267 280.781 282.894 266.818 283.797 252.939C284.772 237.91 293.601 229.689 308.172 228.569C322.611 227.456 332.74 234.732 335.87 248.756C336.694 252.445 337.079 256.291 337.128 260.077C337.284 271.903 337.188 283.736 337.188 295.568V298.752H353.504V295.34C353.504 286.516 353.576 277.693 353.48 268.87C353.402 261.563 353.595 254.209 352.842 246.956H352.83Z" fill="white"/>
<path d="M140.861 228.473C141.71 228.473 142.973 228.003 143.341 227.359C146.922 221.01 152.278 216.394 157.9 212.006H61C64.9121 217.188 68.7881 222.4 72.7965 227.51C73.29 228.142 74.5178 228.479 75.4086 228.479C97.226 228.533 119.043 228.533 140.855 228.473H140.861Z" fill="white"/>
<path d="M134.999 263.423C135.962 263.423 136.918 263.327 137.683 263.285V247.173H83.0459C86.4885 252.204 89.6664 256.694 92.6576 261.304C93.7229 262.941 94.9266 263.483 96.8345 263.471C109.552 263.393 122.275 263.435 134.993 263.423H134.999Z" fill="white"/>
<path d="M143.238 283.357C142.949 282.857 141.884 282.58 141.174 282.574C128.36 282.526 115.553 282.538 102.029 282.538C103.678 284.687 104.972 286.294 106.182 287.967C110.178 293.486 115.42 297.645 122.191 298.09C133.645 298.836 145.164 298.632 156.66 298.806C156.792 298.806 156.925 298.578 157.274 298.265C151.646 294.166 146.753 289.411 143.244 283.357H143.238Z" fill="white"/>
</svg>
